<svg version="1.1" id="Layer_1" xmlns="http://www.w3.org/2000/svg" x="0" y="0" width="1920.62" height="400" viewBox="0 0 1920.62 400" xml:space="preserve">
    <style>
        .st0 {
            fill: #2684b3
        }
    </style>
    <path class="st0" d="M456.79 208.04V102.02h40.46c8.97 0 17.04 3.19 24.03 9.58 7 6.39 10.5 14.76 10.5 24.95 0 9.89-3.5 18.1-10.5 24.64-6.85 6.54-14.91 9.74-24.03 9.74H475.8v37.12h-19.01zm19.02-54.3h20.54c8.52 0 16.58-6.24 16.58-17.19 0-11.1-8.06-17.34-16.58-17.34h-20.54v34.53zM548.83 208.04V102.02h67.54v17.19h-48.53v25.25h45.48v17.19h-45.48v29.21h49.59v17.19h-68.6zM627.79 208.04l44.27-106.03h16.12l44.27 106.03h-20.08l-8.67-21.14h-47.16l-8.67 21.14h-20.08zm34.68-36.81h35.29l-17.65-43.2-17.64 43.2zM747.67 208.04V102.02h19.01v48.22l41.38-48.22h22.97l-45.33 51.72 47 54.31h-23.43l-42.59-49.59v49.59h-19.01zM872.8 208.04V102.02h30.73c9.28 0 16.89 3.04 22.82 9.13 5.93 6.08 8.97 13.54 8.97 22.21 0 8.97-3.04 16.58-8.97 22.51-5.93 5.93-13.54 8.97-22.82 8.97h-22.82v43.2h-7.91zm7.91-50.5h22.51c7.3 0 13.08-2.28 17.49-7 4.41-4.72 6.69-10.5 6.69-17.19 0-6.69-2.28-12.32-6.69-17.04-4.41-4.72-10.19-7-17.49-7h-22.51v48.23zM953.88 208.04V102.02h57.8v7.3h-49.89v38.94h47v7.45h-47v45.03h50.96v7.3h-58.87zM1032.84 208.04V102.02h33.92c8.67 0 16.12 2.89 22.06 8.82 5.93 5.78 8.97 13.08 8.97 21.75 0 13.99-8.21 25.56-20.84 29.66l25.71 45.79h-8.67l-24.95-44.57c-.61.15-1.67.15-3.19.15h-25.1v44.42h-7.91zm7.91-51.72H1066c6.85 0 12.63-2.28 17.04-6.69 4.56-4.56 6.85-10.19 6.85-17.04 0-6.54-2.28-12.17-6.69-16.58-4.41-4.41-10.04-6.69-16.73-6.69h-25.71v47zM1119.1 208.04V102.02h52.33v7.3h-44.42v39.4h40.62v7.3h-40.62v52.02h-7.91zM1274.87 116.01c10.65 10.5 15.97 23.43 15.97 39.09s-5.32 28.6-15.97 39.09c-10.5 10.5-23.43 15.67-38.79 15.67s-28.45-5.17-38.94-15.67c-10.5-10.5-15.82-23.43-15.82-39.09s5.32-28.6 15.82-39.09c10.5-10.5 23.58-15.82 38.94-15.82 15.37 0 28.3 5.33 38.79 15.82zm-5.47 72.87c8.97-8.97 13.39-20.23 13.39-33.77 0-13.54-4.41-24.8-13.39-33.77-8.97-9.13-20.08-13.69-33.31-13.69-13.23 0-24.49 4.56-33.47 13.69-8.97 8.97-13.54 20.23-13.54 33.77 0 13.54 4.41 24.8 13.39 33.77 8.97 8.97 20.08 13.54 33.62 13.54 13.38 0 24.48-4.57 33.31-13.54zM1309.57 208.04V102.02h33.92c8.67 0 16.12 2.89 22.06 8.82 5.93 5.78 8.97 13.08 8.97 21.75 0 13.99-8.21 25.56-20.84 29.66l25.71 45.79h-8.67l-24.95-44.57c-.61.15-1.67.15-3.19.15h-25.1v44.42h-7.91zm7.91-51.72h25.25c6.85 0 12.63-2.28 17.04-6.69 4.56-4.56 6.85-10.19 6.85-17.04 0-6.54-2.28-12.17-6.69-16.58-4.41-4.41-10.04-6.69-16.73-6.69h-25.71v47zM1395.83 208.04V102.02h7.3l41.98 73.78 42.14-73.78h7.3v106.03h-7.91V118l-41.53 71.95-41.53-71.8v89.9h-7.75zM1510.69 208.04l43.66-106.03h6.24l43.66 106.03h-8.52l-11.87-28.9h-52.94l-11.71 28.9h-8.52zm23.27-36.2h46.85l-23.43-57.65-23.42 57.65zM1620.53 208.04V102.02h6.85l67.54 91.73v-91.73h7.91v106.03h-6.54l-67.84-92.34v92.34h-7.92zM1816.92 117.99l-5.32 5.02c-8.97-10.34-20.69-15.52-35.14-15.52-13.54 0-24.64 4.56-33.62 13.69-8.97 8.97-13.39 20.38-13.39 33.92 0 13.54 4.41 24.95 13.39 33.92 8.97 8.97 20.08 13.54 33.62 13.54 14.76 0 26.62-5.32 35.29-15.82l5.48 5.02c-9.89 11.56-24.49 18.1-40.77 18.1-15.36 0-28.45-5.17-39.09-15.67-10.5-10.5-15.82-23.43-15.82-39.09s5.32-28.6 15.82-39.09c10.65-10.5 23.73-15.82 39.09-15.82 16.43 0 29.96 5.94 40.46 17.8zM1834.12 208.04V102.02h57.8v7.3h-49.89v38.94h47v7.45h-47v45.03h50.96v7.3h-58.87zM457.55 298.39v-60.26h19.37c9.6 0 17.2 2.77 22.74 8.3 5.62 5.53 8.39 12.79 8.39 21.87s-2.77 16.34-8.3 21.87c-5.53 5.45-13.14 8.21-22.74 8.21h-19.46zm6.75-6.23h12.19c16.25 0 24.81-9.34 24.81-23.86 0-14.61-8.56-23.95-24.9-23.95h-12.1v47.81zM531.99 298.39v-60.26h6.74v60.26h-6.74zM614.64 244.87l-4.24 4.67c-4.58-4.24-10.12-6.31-16.6-6.31-7.09 0-12.97 2.42-17.64 7.18-4.67 4.75-7 10.72-7 17.9s2.33 13.23 7 17.98 10.55 7.09 17.64 7.09c6.4 0 11.93-1.99 16.51-6.05v-15.56H591.9v-6.22h25.16v24.12c-6.14 6.66-13.92 9.94-23.26 9.94-8.73 0-16.17-2.94-22.31-8.9-6.05-5.97-9.08-13.49-9.08-22.39s3.03-16.34 9.08-22.31c6.14-5.97 13.57-8.99 22.31-8.99 8.22-.02 15.13 2.58 20.84 7.85zM641.96 298.39v-60.26h6.74v60.26h-6.74zM687.34 298.39v-54.04h-16.43v-6.22h39.6v6.22h-16.43v54.04h-6.74zM720.11 298.39l25.5-60.26h5.19l25.5 60.26h-7.26l-6.23-14.87H733.6l-6.23 14.87h-7.26zm16.08-21.1h24.03l-12.02-28.7-12.01 28.7zM798.61 298.39v-60.26h6.74v54.04h24.81v6.22h-31.55z" />
    <g>
        <path d="m232.81 79.39-90.45 159.73-17.53-30.26 94.32-165.4 15.82-27.74a185.448 185.448 0 0 0-32.71-3.44l-17.37 30.54-94.53 166.15 52.3 90.3 90.25-159.4 40.67 71.28-18.75 32.34-23.14-35.15-16.55 29.23 41.3 62.74 51.62-89.04-75.25-131.88z" fill="#2684b3" stroke="#2684b3" stroke-miterlimit="10" />
    </g>
    <g>
        <path class="st0" d="m264.58 24.19-1.65 2.9-13.4 23.5c61.02 20.95 105.02 78.84 105.02 146.88 0 85.65-69.68 155.33-155.33 155.33S43.88 283.11 43.88 197.46c0-80.82 62.05-147.39 141-154.65l17.37-30.54c-1.01-.02-2.03-.04-3.05-.04-102.13 0-185.22 83.09-185.22 185.22S97.07 382.67 199.2 382.67s185.22-83.09 185.22-185.22c.02-79.12-49.87-146.78-119.84-173.26z" />
    </g>
</svg>