<?xml version="1.0" encoding="UTF-8"?>
<svg xmlns="http://www.w3.org/2000/svg" xmlns:xlink="http://www.w3.org/1999/xlink" width="200" height="64" viewBox="0 0 483.3 146.01">
  <defs>
    <style>
      .cls-1 {
        fill-rule: evenodd;
        fill: url(#GradientFill_1);
      }
    </style>
    <linearGradient id="GradientFill_1" data-name="GradientFill 1" x1="214.12" y1="139.64" x2="305.55" y2="-19.98" gradientUnits="userSpaceOnUse">
      <stop offset="0" stop-color="#00aeef"></stop>
      <stop offset="0.58" stop-color="#ec008c"></stop>
      <stop offset="1" stop-color="#fff200"></stop>
    </linearGradient>
  </defs>
  <title>Asset 1</title>
  <g id="Layer_2" data-name="Layer 2">
    <g id="Layer_1-2" data-name="Layer 1">
      <path class="cls-1" d="M44.56,25.09V4.71h12V74h-12V69.57a27.48,27.48,0,0,1-5.78,3.35,27.83,27.83,0,1,1,0-51.18,27.48,27.48,0,0,1,5.78,3.35ZM313.33,139.52c-.55.36-1.11.71-1.68,1a25.57,25.57,0,0,1-5.67,2.38,26.9,26.9,0,0,1-4.6,1.23,27.84,27.84,0,1,1,11.95-49.58V90.81h12v52.41h-12v-3.7Zm44.23-49.18a27.88,27.88,0,0,1,25.63,17l1.17,2.76H372.13l-.59-.92a16.71,16.71,0,0,0-6-5.59,16.62,16.62,0,1,0,8,19.45l.43-1.41h11.39l-.51,2.4a27.83,27.83,0,1,1-27.22-33.67ZM225.27,95.17a27.92,27.92,0,0,1,10,12.15l1.17,2.76H224.19l-.6-.92A16.62,16.62,0,1,0,225.53,123l.43-1.41h11.39l-.52,2.4a27.82,27.82,0,1,1-39.54-30.79l-.88-.64a22.38,22.38,0,0,1-5.53-6.09,24.43,24.43,0,0,1-3.06-7.83l-.5-2.4h11.87l.42,1.44a12.71,12.71,0,0,0,1.76,3.75,11.58,11.58,0,0,0,2.81,2.82,12.27,12.27,0,0,0,3.87,1.78,18.82,18.82,0,0,0,5.09.62,14.53,14.53,0,0,0,5.25-.9,12.3,12.3,0,0,0,4.17-2.71,11.42,11.42,0,0,0,2.73-4.29,17.39,17.39,0,0,0,1-6V69.59a27.85,27.85,0,1,1,0-44.52v-3.5h12V72.78a29.19,29.19,0,0,1-.77,6.79,24.63,24.63,0,0,1-2.3,6.07,22.44,22.44,0,0,1-3.73,5.07,22.11,22.11,0,0,1-5,3.82c-.39.23-.79.44-1.2.64Zm245.47,15.51-.17-.4-.32-.71-.38-.73h0a16.84,16.84,0,0,0-6.12-6.36,16.62,16.62,0,0,0-25.11,14.3,17.58,17.58,0,0,0,.28,3.12,16.74,16.74,0,0,0,.86,3c.21.51.41,1,.66,1.47l.2.38a16.76,16.76,0,0,0,6.12,6.36,16.64,16.64,0,0,0,24.82-17.42,16.71,16.71,0,0,0-.85-3ZM455.26,88.92a27.86,27.86,0,0,1,10.47,2A28.35,28.35,0,0,1,471.3,94V90.82h12v52.41h-12v-3.71l-.77.5a27.83,27.83,0,1,1-15.27-51.1ZM301.38,132.66l.16-.06a16.62,16.62,0,0,0,3.82-29.92l-.23-.15h0c-.32-.2-.65-.39-1-.56h0a18.93,18.93,0,0,0-2.13-.91h0c-.42-.14-.83-.26-1.25-.38h0a15.85,15.85,0,0,0-2.9-.5h0l-.87,0h0a3.34,3.34,0,0,0-.45,0h0a16.62,16.62,0,1,0,0,33.23h0a20.32,20.32,0,0,0,2.2-.15h0c.11,0,.23,0,.34-.06a19.5,19.5,0,0,0,2.32-.52ZM252.82,96.23V90.81h-12v52.41h12V115.73a17.74,17.74,0,0,1,1-6.19,8.54,8.54,0,0,1,2.63-3.77,13,13,0,0,1,4.29-2.27,18.86,18.86,0,0,1,5.58-.77h3.62l6.8-11.94-3.05-.3a43.27,43.27,0,0,0-8.37-.26h0a20.41,20.41,0,0,0-12.44,6Zm165.87,46.38.59.61h15.58l-25.49-26.35,24.92-26.06H419l-18.1,18.25V91h-12v52.26h12V124.33l17.76,18.28ZM124,94.07l-6.11,21.25h-3.8L108.25,98l-5.89,17.3H98.53l-6-21.25h3.56L100.58,112l5.89-17.88h3.67l5.93,17.85,4.57-17.85Zm2.68-6.23a2,2,0,0,1,.65-1.57,2.84,2.84,0,0,1,3.49,0,2,2,0,0,1,.66,1.57,2,2,0,0,1-.66,1.57,2.84,2.84,0,0,1-3.49,0,2,2,0,0,1-.65-1.57Zm4.14,6.23v21.25h-3.53V94.07Zm15.79,18.16v3.09H144a6.77,6.77,0,0,1-4.86-1.54q-1.6-1.56-1.6-5.19V97.13h-3.18V94.07h3.18v-5.3h3.56v5.3h5.49v3.06h-5.49v11.53a4,4,0,0,0,.75,2.81,3.67,3.67,0,0,0,2.61.76ZM162.1,93.72a8,8,0,0,1,6,2.38q2.28,2.39,2.28,6.87v12.35h-3.52v-12a6.75,6.75,0,0,0-1.63-4.87,5.78,5.78,0,0,0-4.41-1.71,6.06,6.06,0,0,0-4.65,1.88,7.79,7.79,0,0,0-1.74,5.48v11.26h-3.52V86.68h3.52V99.1a7.14,7.14,0,0,1,2.89-4,8.35,8.35,0,0,1,4.78-1.4ZM171.87,0a9.09,9.09,0,0,1,6.42,2.66h0a9.07,9.07,0,1,1-12.83,12.82h0a9.05,9.05,0,0,1,0-12.82h0A9,9,0,0,1,171.87,0Zm37.67,30.71a16.61,16.61,0,1,0,11.76,4.87,16.58,16.58,0,0,0-11.76-4.87ZM89.12,19.78A26.55,26.55,0,0,1,108.25,28a28.19,28.19,0,0,1,7.9,19.66q0,.86-.06,1.83t-.18,1.83L115.69,53H73.93a16.72,16.72,0,0,0,5,7.41A15.65,15.65,0,0,0,94.44,63.3a16,16,0,0,0,4.72-2.72l.56-.47h13.81l-2,3.08a27.46,27.46,0,0,1-9.73,9A26.43,26.43,0,0,1,70,67.27,28.4,28.4,0,0,1,70,28a26.57,26.57,0,0,1,19.14-8.17Zm15.23,22.57a16.59,16.59,0,0,0-5-7.51,15.64,15.64,0,0,0-20.55,0,16.66,16.66,0,0,0-5,7.51ZM256.5,74.1h-10V43.75a24.16,24.16,0,0,1,48.32,0V74.1h-12V43.28a12.13,12.13,0,0,0-3.56-8.57h0a12.14,12.14,0,0,0-20.71,8.57V74.1ZM27.83,30.71a16.63,16.63,0,1,0,11.75,4.87,16.56,16.56,0,0,0-11.75-4.87Zm109.75-9.77a25.93,25.93,0,0,1,8,1.17,18.65,18.65,0,0,1,6.46,3.59,19,19,0,0,1,4.47,5.61,22.09,22.09,0,0,1,2.25,7.12l.33,2.28H147.38L147.17,39a9.25,9.25,0,0,0-2.94-5.88,8.17,8.17,0,0,0-2.86-1.67,12.32,12.32,0,0,0-4-.58,11.29,11.29,0,0,0-3.27.42A6.2,6.2,0,0,0,132,32.42a4.7,4.7,0,0,0-1.29,1.71,6,6,0,0,0-.44,2.38,4.61,4.61,0,0,0,.28,1.69,3.33,3.33,0,0,0,.76,1.18h0a7.71,7.71,0,0,0,1.46,1.15,9.43,9.43,0,0,0,1.84.86h0c.77.26,1.69.54,2.75.83s2.38.62,3.7.92a69,69,0,0,1,9,2.6,15.65,15.65,0,0,1,3.51,1.91,16.11,16.11,0,0,1,2.95,2.78,11.58,11.58,0,0,1,2.12,4,16.55,16.55,0,0,1,.67,4.86,14.48,14.48,0,0,1-1.3,6.19,14.16,14.16,0,0,1-3.87,5,17,17,0,0,1-5.87,3.15,24.31,24.31,0,0,1-7.26,1,29.78,29.78,0,0,1-8.42-1.12,21.45,21.45,0,0,1-6.9-3.43,17.93,17.93,0,0,1-4.88-5.58,20.26,20.26,0,0,1-2.32-7.3l-.3-2.25h11.82l.18,1.8a8.68,8.68,0,0,0,.95,3.24,8.23,8.23,0,0,0,2.15,2.55,9.79,9.79,0,0,0,3.27,1.7,15.37,15.37,0,0,0,4.45.59,9.77,9.77,0,0,0,3.07-.43,5.56,5.56,0,0,0,2.08-1.17,4.86,4.86,0,0,0,1.25-1.74h0a6,6,0,0,0,.42-2.34,5.32,5.32,0,0,0-.29-1.85,3.37,3.37,0,0,0-.81-1.25,9.1,9.1,0,0,0-3.4-2.09q-1.26-.45-2.79-.87c-1.08-.29-2.34-.6-3.77-.92h0q-2.79-.65-4.94-1.26t-3.93-1.29h0a14.62,14.62,0,0,1-3.42-1.84,15,15,0,0,1-2.86-2.66,10.81,10.81,0,0,1-2.06-3.85,15.79,15.79,0,0,1-.66-4.7,15.08,15.08,0,0,1,1.31-6.32,14.31,14.31,0,0,1,3.91-5,17.06,17.06,0,0,1,6-3.18,25.61,25.61,0,0,1,7.52-1ZM178,23.54V74H166V21.55h12Z"></path>
    </g>
  </g>
</svg>